<?xml version="1.0" standalone="no"?>
<!DOCTYPE svg PUBLIC "-//W3C//DTD SVG 20010904//EN"
 "http://www.w3.org/TR/2001/REC-SVG-20010904/DTD/svg10.dtd">
<svg version="1.0" xmlns="http://www.w3.org/2000/svg"
 width="200.000000pt" height="120.000000pt" viewBox="0 0 200.000000 120.000000"
 preserveAspectRatio="xMidYMid meet">

<g transform="translate(0.000000,120.000000) scale(0.100000,-0.100000)"
fill="#000000" stroke="none">
<path d="M962 944 c-27 -18 -29 -55 -4 -77 25 -23 48 -21 73 4 22 22 19 55 -9
77 -21 16 -33 15 -60 -4z"/>
<path d="M1070 825 c-52 -30 -123 -81 -158 -114 -106 -100 -126 -184 -65 -274
l28 -42 6 67 c8 97 58 193 151 289 40 42 89 88 108 102 51 39 36 33 -70 -28z"/>
<path d="M806 774 c-9 -8 -16 -22 -16 -29 0 -7 7 -21 16 -29 8 -9 22 -16 29
-16 7 0 21 7 29 16 9 8 16 22 16 29 0 7 -7 21 -16 29 -8 9 -22 16 -29 16 -7 0
-21 -7 -29 -16z"/>
<path d="M738 677 c28 -31 52 -61 52 -66 0 -20 19 -11 26 11 7 25 -22 54 -91
90 l-40 21 53 -56z"/>
<path d="M600 662 c0 -6 -12 -18 -26 -25 -17 -9 -23 -17 -15 -21 6 -4 11 -19
11 -33 0 -21 2 -23 15 -13 8 6 23 9 35 5 15 -5 20 -2 20 12 0 11 5 24 12 31 9
9 9 12 0 12 -6 0 -20 10 -32 22 -11 12 -20 17 -20 10z"/>
<path d="M1367 487 c16 -35 16 -41 2 -65 -20 -36 -82 -76 -149 -97 -80 -25
-294 -31 -388 -11 -93 19 -170 61 -196 105 -18 32 -19 36 -3 63 19 34 15 36
-13 6 -41 -44 -20 -100 54 -143 150 -88 502 -88 652 0 77 45 94 96 49 150
l-25 30 17 -38z"/>
<path d="M782 175 c0 -16 2 -22 5 -12 2 9 2 23 0 30 -3 6 -5 -1 -5 -18z"/>
</g>
</svg>
